<svg width="14" height="12" viewBox="0 0 14 12" fill="none" xmlns="http://www.w3.org/2000/svg">
<path d="M7.69926 0.538971C4.73318 0.538971 2.32027 2.91584 2.24821 5.87459V6.01138H0.665405L3.06363 8.60979L5.39513 6.01138H3.61214V5.87459C3.68354 3.67054 5.48588 1.90757 7.69926 1.90757C9.95869 1.90757 11.7904 3.74528 11.7904 6.01138C11.7904 8.27748 9.95869 10.1152 7.69926 10.1152C6.82811 10.1157 5.97977 9.83667 5.27902 9.31912L4.34081 10.3227C5.29838 11.0753 6.48134 11.4838 7.69926 11.4825C10.7121 11.4825 13.1537 9.03352 13.1537 6.01138C13.1537 2.98924 10.7121 0.538971 7.69926 0.538971ZM7.03198 2.67495V6.01138C7.03274 6.1882 7.10296 6.35763 7.22749 6.48315L9.36281 8.61846C9.55165 8.49635 9.72981 8.35889 9.88796 8.19941L8.36655 6.67867V2.67495H7.03198Z" fill="#494949"/>
</svg>
