<svg width="14" height="14" viewBox="0 0 14 14" fill="none" xmlns="http://www.w3.org/2000/svg">
<path fill-rule="evenodd" clip-rule="evenodd" d="M7.5873 13.3683H1.1955C0.788582 13.3683 0.458923 13.0384 0.458923 12.6316V0.759129C0.458923 0.352262 0.788634 0.0225525 1.1955 0.0225525H13.0681C13.4749 0.0225525 13.8046 0.352262 13.8046 0.759129V12.6316C13.8046 13.0385 13.4748 13.3683 13.0681 13.3683H9.66727V8.20007H11.402L11.6617 6.18593H9.66727V4.90003C9.66727 4.3169 9.8292 3.9195 10.6654 3.9195L11.732 3.91904V2.11758C11.5475 2.09303 10.9144 2.03819 10.1778 2.03819C8.64008 2.03819 7.5873 2.97683 7.5873 4.70056V6.18593H5.84812V8.20007H7.5873V13.3683Z" fill="#4460A0"/>
</svg>
