<svg width="14" height="14" viewBox="0 0 14 14" fill="none" xmlns="http://www.w3.org/2000/svg">
<g clip-path="url(#clip0_165_2006)">
<path d="M13.7463 3.97934C13.7135 3.27195 13.6004 2.78698 13.4363 2.364C13.265 1.92644 13.0389 1.55451 12.6706 1.18622C12.3023 0.81794 11.9304 0.588219 11.4928 0.420486C11.0698 0.256399 10.5849 0.143362 9.87748 0.110545C9.16644 0.0777273 8.94037 0.0704346 7.13541 0.0704346C5.32682 0.0704346 5.10074 0.0777273 4.39334 0.110545C3.68595 0.143362 3.20098 0.256399 2.778 0.420486C2.34044 0.591865 1.96851 0.81794 1.60023 1.18622C1.23194 1.55451 1.00222 1.92644 0.834488 2.364C0.670401 2.78698 0.557363 3.27195 0.524546 3.97934C0.491729 4.69039 0.484436 4.91646 0.484436 6.72141C0.484436 8.53001 0.491729 8.75609 0.524546 9.46348C0.557363 10.1709 0.670401 10.6558 0.834488 11.0788C1.00587 11.5164 1.23194 11.8883 1.60023 12.2566C1.96851 12.6249 2.34044 12.8546 2.778 13.0223C3.20098 13.1864 3.68595 13.2995 4.39334 13.3323C5.10439 13.3651 5.33046 13.3724 7.13541 13.3724C8.94401 13.3724 9.17009 13.3651 9.87748 13.3323C10.5849 13.2995 11.0698 13.1864 11.4928 13.0223C11.9304 12.851 12.3023 12.6249 12.6706 12.2566C13.0389 11.8883 13.2686 11.5164 13.4363 11.0788C13.6004 10.6558 13.7135 10.1709 13.7463 9.46348C13.7791 8.75244 13.7864 8.52637 13.7864 6.72141C13.7864 4.91646 13.7791 4.68674 13.7463 3.97934ZM12.5503 9.40879C12.5211 10.0578 12.4117 10.4115 12.3206 10.6449C12.2002 10.9548 12.0544 11.1773 11.821 11.4106C11.5876 11.644 11.3652 11.7862 11.0553 11.9102C10.8219 12.0014 10.4682 12.1107 9.81914 12.1399C9.11904 12.1727 8.90755 12.18 7.13177 12.18C5.35599 12.18 5.1445 12.1727 4.44439 12.1399C3.79534 12.1107 3.44164 12.0014 3.20827 11.9102C2.89833 11.7899 2.6759 11.644 2.44254 11.4106C2.20917 11.1773 2.06696 10.9548 1.94298 10.6449C1.85182 10.4115 1.74243 10.0578 1.71326 9.40879C1.68045 8.70868 1.67315 8.4972 1.67315 6.72141C1.67315 4.94563 1.68045 4.73414 1.71326 4.03404C1.74243 3.38498 1.85182 3.03129 1.94298 2.79792C2.06331 2.48798 2.20917 2.26555 2.44254 2.03218C2.6759 1.79881 2.89833 1.65661 3.20827 1.53263C3.44164 1.44147 3.79534 1.33208 4.44439 1.30291C5.1445 1.27009 5.35599 1.2628 7.13177 1.2628C8.90755 1.2628 9.11904 1.27009 9.81914 1.30291C10.4682 1.33208 10.8219 1.44147 11.0553 1.53263C11.3652 1.65296 11.5876 1.79881 11.821 2.03218C12.0544 2.26555 12.1966 2.48798 12.3206 2.79792C12.4117 3.03129 12.5211 3.38498 12.5503 4.03404C12.5831 4.73414 12.5904 4.94563 12.5904 6.72141C12.5904 8.4972 12.5794 8.70868 12.5503 9.40879Z" fill="url(#paint0_linear_165_2006)"/>
<path d="M7.1318 3.30475C5.24298 3.30475 3.71515 4.83622 3.71515 6.7214C3.71515 8.61022 5.24662 10.138 7.1318 10.138C9.01697 10.138 10.5484 8.60657 10.5484 6.7214C10.5484 4.83258 9.02062 3.30475 7.1318 3.30475ZM7.1318 8.93839C5.90662 8.93839 4.9148 7.94658 4.9148 6.7214C4.9148 5.49622 5.90662 4.5044 7.1318 4.5044C8.35698 4.5044 9.34879 5.49622 9.34879 6.7214C9.34879 7.94658 8.35698 8.93839 7.1318 8.93839Z" fill="url(#paint1_linear_165_2006)"/>
<path d="M10.6835 3.96828C11.1245 3.96828 11.482 3.61077 11.482 3.16976C11.482 2.72876 11.1245 2.37125 10.6835 2.37125C10.2425 2.37125 9.88495 2.72876 9.88495 3.16976C9.88495 3.61077 10.2425 3.96828 10.6835 3.96828Z" fill="#BC30A0"/>
<path d="M0.477173 6.72141C0.477173 8.53001 0.484466 8.75609 0.517283 9.46348C0.5501 10.1709 0.663138 10.6558 0.827224 11.0788C0.998604 11.5164 1.22468 11.8883 1.59296 12.2566C1.96125 12.6249 2.33318 12.8546 2.77074 13.0223C3.19372 13.1864 3.67869 13.2995 4.38608 13.3323C5.09712 13.3651 5.3232 13.3724 7.12815 13.3724C8.93675 13.3724 9.16283 13.3651 9.87022 13.3323C10.5776 13.2995 11.0626 13.1864 11.4856 13.0223C11.9231 12.851 12.2951 12.6249 12.6633 12.2566C13.0316 11.8883 13.2613 11.5164 13.4291 11.0788C13.5932 10.6558 13.7062 10.1709 13.739 9.46348C13.7718 8.75244 13.7791 8.52637 13.7791 6.72141C13.7791 4.91281 13.7718 4.68674 13.739 3.97934C13.7062 3.27195 13.5932 2.78698 13.4291 2.364C13.2577 1.92644 13.0316 1.55451 12.6633 1.18622C12.2951 0.81794 11.9231 0.588219 11.4856 0.420486C11.0626 0.256399 10.5776 0.143362 9.87022 0.110545C9.15918 0.0777273 8.9331 0.0704346 7.12815 0.0704346C5.31955 0.0704346 5.09348 0.0777273 4.38608 0.110545C3.67869 0.143362 3.19372 0.256399 2.77074 0.420486C2.33318 0.591865 1.96125 0.81794 1.59296 1.18622C1.22468 1.55451 0.994957 1.92644 0.827224 2.364C0.663138 2.78698 0.5501 3.27195 0.517283 3.97934C0.484466 4.68674 0.477173 4.91281 0.477173 6.72141ZM1.67683 6.72141C1.67683 4.94563 1.68412 4.73414 1.71694 4.03404C1.74611 3.38498 1.8555 3.03129 1.94666 2.79792C2.06699 2.48798 2.21284 2.26555 2.44621 2.03218C2.67958 1.79881 2.90201 1.65661 3.21195 1.53263C3.44532 1.44147 3.79902 1.33208 4.44807 1.30291C5.14817 1.27009 5.35966 1.2628 7.13544 1.2628C8.91123 1.2628 9.12272 1.27009 9.82282 1.30291C10.4719 1.33208 10.8256 1.44147 11.0589 1.53263C11.3689 1.65296 11.5913 1.79881 11.8247 2.03218C12.058 2.26555 12.2003 2.48798 12.3242 2.79792C12.4154 3.03129 12.5248 3.38498 12.5539 4.03404C12.5868 4.73414 12.5941 4.94563 12.5941 6.72141C12.5941 8.4972 12.5868 8.70868 12.5539 9.40879C12.5248 10.0578 12.4154 10.4115 12.3242 10.6449C12.2039 10.9548 12.058 11.1773 11.8247 11.4106C11.5913 11.644 11.3689 11.7862 11.0589 11.9102C10.8256 12.0014 10.4719 12.1107 9.82282 12.1399C9.12272 12.1727 8.91123 12.18 7.13544 12.18C5.35966 12.18 5.14817 12.1727 4.44807 12.1399C3.79902 12.1107 3.44532 12.0014 3.21195 11.9102C2.90201 11.7899 2.67958 11.644 2.44621 11.4106C2.21284 11.1773 2.07064 10.9548 1.94666 10.6449C1.8555 10.4115 1.74611 10.0578 1.71694 9.40879C1.68412 8.70868 1.67683 8.4972 1.67683 6.72141Z" fill="url(#paint2_linear_165_2006)"/>
</g>
<defs>
<linearGradient id="paint0_linear_165_2006" x1="4.82473" y1="-0.996515" x2="9.18338" y2="13.5847" gradientUnits="userSpaceOnUse">
<stop stop-color="#4367DC"/>
<stop offset="0.04289" stop-color="#4C62D6"/>
<stop offset="0.1142" stop-color="#6654C7"/>
<stop offset="0.2045" stop-color="#8F3DAE"/>
<stop offset="0.2341" stop-color="#9E35A5"/>
<stop offset="0.4512" stop-color="#D42F7F"/>
<stop offset="0.8242" stop-color="#D73578"/>
</linearGradient>
<linearGradient id="paint1_linear_165_2006" x1="8.76209" y1="3.98036" x2="5.26788" y2="9.85528" gradientUnits="userSpaceOnUse">
<stop offset="0.3304" stop-color="#D42F7F"/>
<stop offset="1" stop-color="#F7772E"/>
</linearGradient>
<linearGradient id="paint2_linear_165_2006" x1="8.77108" y1="2.81157" x2="4.48545" y2="13.0332" gradientUnits="userSpaceOnUse">
<stop stop-color="#9E35A5" stop-opacity="0"/>
<stop offset="0.4512" stop-color="#D42F7F" stop-opacity="0.5"/>
<stop offset="0.7524" stop-color="#F7772E"/>
<stop offset="1" stop-color="#FEF780"/>
</linearGradient>
<clipPath id="clip0_165_2006">
<rect width="13.3457" height="13.3457" fill="white" transform="translate(0.458923 0.0485535)"/>
</clipPath>
</defs>
</svg>
