<svg width="14" height="14" viewBox="0 0 14 14" fill="none" xmlns="http://www.w3.org/2000/svg">
<path fill-rule="evenodd" clip-rule="evenodd" d="M13.8046 13.8651H10.855V9.17353C10.855 7.94553 10.3937 7.10721 9.37909 7.10721C8.60305 7.10721 8.17147 7.67293 7.97059 8.21814C7.89526 8.41383 7.90703 8.68644 7.90703 8.95904V13.8651H4.98492C4.98492 13.8651 5.02258 5.55447 4.98492 4.79903H7.90703V6.22188C8.07966 5.59976 9.01342 4.71187 10.5035 4.71187C12.3522 4.71187 13.8046 6.01593 13.8046 8.82403V13.8651ZM2.02983 3.66503H2.01101C1.0694 3.66503 0.458923 2.97197 0.458923 2.09348C0.458923 1.1979 1.08745 0.519379 2.04788 0.519379C3.00754 0.519379 3.59761 1.1962 3.61644 2.09093C3.61644 2.96942 3.00754 3.66503 2.02983 3.66503ZM0.795539 4.79903H3.39674V13.8651H0.795539V4.79903Z" fill="#007EBB"/>
</svg>
