<svg width="8" height="12" viewBox="0 0 8 12" fill="none" xmlns="http://www.w3.org/2000/svg">
<path d="M4.03198 0.404022C2.18894 0.404022 0.695557 1.8914 0.695557 3.73378C0.695557 6.9194 4.03198 11.0739 4.03198 11.0739C4.03198 11.0739 7.36841 6.91873 7.36841 3.73378C7.36841 1.89207 5.87503 0.404022 4.03198 0.404022V0.404022ZM4.03198 5.57615C3.55415 5.57615 3.09589 5.38634 2.75801 5.04846C2.42013 4.71058 2.23031 4.25231 2.23031 3.77448C2.23031 3.29665 2.42013 2.83839 2.75801 2.50051C3.09589 2.16263 3.55415 1.97281 4.03198 1.97281C4.50982 1.97281 4.96808 2.16263 5.30596 2.50051C5.64384 2.83839 5.83366 3.29665 5.83366 3.77448C5.83366 4.25231 5.64384 4.71058 5.30596 5.04846C4.96808 5.38634 4.50982 5.57615 4.03198 5.57615Z" fill="#494949"/>
</svg>
