<svg width="14" height="14" viewBox="0 0 14 14" fill="none" xmlns="http://www.w3.org/2000/svg">
<path d="M7.03198 0.969727C3.49403 0.969727 0.626038 3.83772 0.626038 7.37567C0.626038 10.9136 3.49403 13.7816 7.03198 13.7816C10.5699 13.7816 13.4379 10.9136 13.4379 7.37567C13.4379 3.83772 10.5699 0.969727 7.03198 0.969727ZM4.51698 5.37381H9.53497C9.80122 5.37381 9.66375 5.71546 9.51895 5.80288C9.37415 5.88962 7.37029 7.10208 7.29489 7.14679C7.21949 7.1915 7.1234 7.21352 7.02597 7.21352C6.93223 7.21544 6.83965 7.19241 6.75773 7.14679L4.53299 5.80288C4.38819 5.71546 4.2514 5.37381 4.51698 5.37381ZM9.70112 9.04388C9.70112 9.18401 9.53297 9.37753 9.40485 9.37753H4.65911C4.53099 9.37753 4.36284 9.18401 4.36284 9.04388V6.61029C4.36284 6.5489 4.3615 6.46949 4.47761 6.53689L6.75773 7.88147C6.8382 7.93066 6.93183 7.95396 7.02597 7.9482C7.1234 7.9482 7.19413 7.94086 7.29489 7.88147L9.58635 6.53756C9.70246 6.4695 9.70112 6.54957 9.70112 6.61096V9.04388Z" fill="#494949"/>
</svg>
