<svg width="12" height="12" viewBox="0 0 12 12" fill="none" xmlns="http://www.w3.org/2000/svg">
<path d="M7.90576 8.43698L8.82512 7.51725C8.94895 7.39491 9.10561 7.31117 9.2761 7.27618C9.44658 7.2412 9.62355 7.25648 9.78552 7.32017L10.906 7.76771C11.0697 7.83418 11.21 7.94763 11.3094 8.09377C11.4087 8.2399 11.4626 8.41218 11.4642 8.5889V10.6419C11.4632 10.7621 11.438 10.8809 11.3899 10.991C11.3419 11.1012 11.272 11.2006 11.1846 11.283C11.0972 11.3655 10.994 11.4294 10.8812 11.4709C10.7684 11.5125 10.6484 11.5307 10.5284 11.5246C2.67692 11.036 1.09268 4.38443 0.793064 1.83876C0.779155 1.71375 0.791863 1.58721 0.83035 1.46746C0.868837 1.34772 0.932232 1.23748 1.01636 1.14401C1.10049 1.05053 1.20346 0.97594 1.31847 0.925133C1.43349 0.874326 1.55796 0.848458 1.68369 0.849229H3.66605C3.84295 0.849753 4.01565 0.903209 4.16193 1.00272C4.30821 1.10223 4.42139 1.24325 4.48691 1.40764L4.93427 2.52855C5.00005 2.68994 5.01683 2.86715 4.98252 3.03802C4.94821 3.2089 4.86434 3.36587 4.74137 3.48934L3.82202 4.40907C3.82202 4.40907 4.35147 7.99354 7.90576 8.43698Z" fill="#494949"/>
</svg>
