<svg width="19" height="19" viewBox="0 0 19 19" fill="none" xmlns="http://www.w3.org/2000/svg">
<path fill-rule="evenodd" clip-rule="evenodd" d="M18.2532 2.87249C17.5994 3.22979 16.8954 3.47141 16.157 3.57937C16.9111 3.02415 17.4897 2.14375 17.7623 1.09499C17.0563 1.60909 16.2761 1.98309 15.4426 2.18359C14.7783 1.31091 13.8289 0.765961 12.7782 0.765961C10.7635 0.765961 9.12889 2.77737 9.12889 5.25791C9.12889 5.61007 9.16023 5.95195 9.2229 6.28097C6.18877 6.09332 3.49931 4.30682 1.69764 1.58595C1.38326 2.25171 1.20361 3.02415 1.20361 3.84671C1.20361 5.40443 1.84804 6.77965 2.82774 7.5855C2.23031 7.56365 1.6663 7.35929 1.17332 7.02513V7.08039C1.17332 9.2576 2.43189 11.0737 4.10301 11.4849C3.79698 11.5903 3.47425 11.643 3.14107 11.643C2.90607 11.643 2.67629 11.616 2.45382 11.5633C2.9186 13.3473 4.26594 14.6467 5.86394 14.6814C4.61478 15.8869 3.03975 16.6054 1.32999 16.6054C1.03546 16.6054 0.744058 16.5848 0.458923 16.5437C2.07469 17.8161 3.99438 18.5602 6.05508 18.5602C12.7709 18.5602 16.4421 11.7163 16.4421 5.77972C16.4421 5.58436 16.439 5.389 16.4327 5.1975C17.1461 4.56387 17.7654 3.77345 18.2532 2.87249Z" fill="#00AAEC"/>
</svg>
