<svg width="14" height="14" viewBox="0 0 14 14" fill="none" xmlns="http://www.w3.org/2000/svg">
<path fill-rule="evenodd" clip-rule="evenodd" d="M5.75384 9.57534L5.75342 4.24405L9.35926 6.91889L5.75384 9.57534ZM13.6712 3.32022C13.6712 3.32022 13.5406 2.01275 13.1407 1.43699C12.6331 0.680966 12.0643 0.677401 11.8036 0.633522C9.93605 0.441403 7.1347 0.441406 7.1347 0.441406H7.12886C7.12886 0.441406 4.32751 0.441403 2.45995 0.633522C2.19887 0.677401 1.63043 0.680966 1.12246 1.43699C0.722503 2.01275 0.592379 3.32022 0.592379 3.32022C0.592379 3.32022 0.458923 4.85598 0.458923 6.39115V7.83086C0.458923 9.36662 0.592379 10.9018 0.592379 10.9018C0.592379 10.9018 0.722503 12.2093 1.12246 12.785C1.63043 13.541 2.29729 13.5173 2.59424 13.5962C3.66189 13.7421 7.13178 13.7871 7.13178 13.7871C7.13178 13.7871 9.93605 13.7812 11.8036 13.5891C12.0643 13.5446 12.6331 13.541 13.1407 12.785C13.5406 12.2093 13.6712 10.9018 13.6712 10.9018C13.6712 10.9018 13.8046 9.36662 13.8046 7.83086V6.39115C13.8046 4.85598 13.6712 3.32022 13.6712 3.32022Z" fill="#CE1312"/>
</svg>
