<?xml version="1.0" encoding="UTF-8"?>
<svg width="71px" height="71px" viewBox="0 0 71 71" version="1.1" xmlns="http://www.w3.org/2000/svg" xmlns:xlink="http://www.w3.org/1999/xlink">
    <title>businessconsultation</title>
    <g id="Page-1" stroke="none" stroke-width="1" fill="none" fill-rule="evenodd">
        <g id="Desktop" transform="translate(-387.000000, -194.000000)" fill="#8834FF">
            <g id="businessconsultation" transform="translate(387.000000, 194.000000)">
                <g id="Group-Copy" fill-opacity="0.05">
                    <path d="M6.409713,-2.58960077e-16 L64.590287,2.58960077e-16 C66.8190838,-1.50463262e-16 67.6272994,0.232064028 68.4421143,0.667831759 C69.2569291,1.10359949 69.8964005,1.74307093 70.3321682,2.55788574 C70.767936,3.37270056 71,4.18091615 71,6.409713 L71,64.590287 C71,66.8190838 70.767936,67.6272994 70.3321682,68.4421143 C69.8964005,69.2569291 69.2569291,69.8964005 68.4421143,70.3321682 C67.6272994,70.767936 66.8190838,71 64.590287,71 L6.409713,71 C4.18091615,71 3.37270056,70.767936 2.55788574,70.3321682 C1.74307093,69.8964005 1.10359949,69.2569291 0.667831759,68.4421143 C0.232064028,67.6272994 1.00308841e-16,66.8190838 -1.72640051e-16,64.590287 L1.72640051e-16,6.409713 C-1.00308841e-16,4.18091615 0.232064028,3.37270056 0.667831759,2.55788574 C1.10359949,1.74307093 1.74307093,1.10359949 2.55788574,0.667831759 C3.37270056,0.232064028 4.18091615,1.50463262e-16 6.409713,-2.58960077e-16 Z" id="Rectangle"></path>
                </g>
                <g id="briefcase.1" transform="translate(18.000000, 19.000000)" fill-rule="nonzero">
                    <path d="M19.6875,17.6 C19.6875,17.1974 19.5726563,16.8256 19.3845313,16.5 L15.6154687,16.5 C15.4273437,16.8256 15.3125,17.1974 15.3125,17.6 C15.3125,18.8144 16.2925,19.8 17.5,19.8 C18.7075,19.8 19.6875,18.8144 19.6875,17.6 L19.6875,17.6 Z M21.875,17.6 C21.875,20.0299 19.9160938,22 17.5,22 C15.0839062,22 13.125,20.0299 13.125,17.6 C13.125,17.2172 13.1840625,16.8509 13.2792187,16.5 L0,16.5 L0,28.6 C0,31.0299 1.95890625,33 4.375,33 L30.625,33 C33.0410938,33 35,31.0299 35,28.6 L35,16.5 L21.7207813,16.5 C21.8159375,16.8509 21.875,17.2172 21.875,17.6 L21.875,17.6 Z M21.875,4.4 L13.125,4.4 L13.125,3.3 C13.125,2.6928 13.615,2.2 14.21875,2.2 L20.78125,2.2 C21.385,2.2 21.875,2.6928 21.875,3.3 L21.875,4.4 L21.875,4.4 Z M30.625,4.4 L24.0625,4.4 L24.0625,2.2 C24.0625,0.9856 23.0825,0 21.875,0 L13.125,0 C11.9175,0 10.9375,0.9856 10.9375,2.2 L10.9375,4.4 L4.375,4.4 C1.95890625,4.4 0,6.3701 0,8.8 L0,14.3 L35,14.3 L35,8.8 C35,6.3701 33.0410938,4.4 30.625,4.4 L30.625,4.4 Z" id="briefcase"></path>
                </g>
            </g>
        </g>
    </g>
</svg>