<?xml version="1.0" encoding="UTF-8"?>
<svg width="71px" height="71px" viewBox="0 0 71 71" version="1.1" xmlns="http://www.w3.org/2000/svg" xmlns:xlink="http://www.w3.org/1999/xlink">
    <title>commercialisation</title>
    <g id="Page-1" stroke="none" stroke-width="1" fill="none" fill-rule="evenodd">
        <g id="Desktop" transform="translate(-595.000000, -209.000000)" fill="#FF0000">
            <g id="Group-Copy-2" transform="translate(595.000000, 209.000000)">
                <path d="M6.409713,-2.58960077e-16 L64.590287,2.58960077e-16 C66.8190838,-1.50463262e-16 67.6272994,0.232064028 68.4421143,0.667831759 C69.2569291,1.10359949 69.8964005,1.74307093 70.3321682,2.55788574 C70.767936,3.37270056 71,4.18091615 71,6.409713 L71,64.590287 C71,66.8190838 70.767936,67.6272994 70.3321682,68.4421143 C69.8964005,69.2569291 69.2569291,69.8964005 68.4421143,70.3321682 C67.6272994,70.767936 66.8190838,71 64.590287,71 L6.409713,71 C4.18091615,71 3.37270056,70.767936 2.55788574,70.3321682 C1.74307093,69.8964005 1.10359949,69.2569291 0.667831759,68.4421143 C0.232064028,67.6272994 1.00308841e-16,66.8190838 -1.72640051e-16,64.590287 L1.72640051e-16,6.409713 C-1.00308841e-16,4.18091615 0.232064028,3.37270056 0.667831759,2.55788574 C1.10359949,1.74307093 1.74307093,1.10359949 2.55788574,0.667831759 C3.37270056,0.232064028 4.18091615,1.50463262e-16 6.409713,-2.58960077e-16 Z" id="Rectangle" fill-opacity="0.05"></path>
                <g id="ic_attach_money_18px" transform="translate(27.000000, 19.000000)" fill-rule="nonzero">
                    <path d="M9.67692308,14.64375 C6.45798817,13.591875 4.32544379,13.179375 4.32544379,10.76625 C4.32544379,9.054375 5.7739645,7.425 8.55029586,7.425 C11.7491124,7.425 12.7751479,9.24 12.7751479,11.42625 L16.5976331,11.42625 C16.5976331,7.734375 14.243787,5.053125 10.5621302,4.33125 L10.5621302,0 L6.53846154,0 L6.53846154,4.351875 C3.35976331,5.011875 0.50295858,7.1775 0.50295858,10.786875 C0.50295858,15.4275 4.08402367,16.561875 8.55029586,18.046875 C12.3325444,19.305 13.0769231,20.191875 13.0769231,22.3575 C13.0769231,24.21375 11.7289941,25.575 8.55029586,25.575 C6.13609467,25.575 4.02366864,23.8425 4.02366864,21.32625 L0,21.32625 C0,25.20375 2.77633136,27.92625 6.53846154,28.66875 L6.53846154,33 L10.5621302,33 L10.5621302,28.730625 C14.6662722,28.1325 17,25.6575 17,22.336875 C17,18.48 15.1088757,16.4175 9.67692308,14.64375 L9.67692308,14.64375 Z" id="Path"></path>
                </g>
            </g>
        </g>
    </g>
</svg>