<?xml version="1.0" encoding="UTF-8"?>
<svg width="71px" height="71px" viewBox="0 0 71 71" version="1.1" xmlns="http://www.w3.org/2000/svg" xmlns:xlink="http://www.w3.org/1999/xlink">
    <title>ideation</title>
    <g id="Page-1" stroke="none" stroke-width="1" fill="none" fill-rule="evenodd">
        <g id="Desktop" transform="translate(-383.000000, -209.000000)">
            <g id="ideation" transform="translate(383.000000, 209.000000)">
                <path d="M6.409713,-2.58960077e-16 L64.590287,2.58960077e-16 C66.8190838,-1.50463262e-16 67.6272994,0.232064028 68.4421143,0.667831759 C69.2569291,1.10359949 69.8964005,1.74307093 70.3321682,2.55788574 C70.767936,3.37270056 71,4.18091615 71,6.409713 L71,64.590287 C71,66.8190838 70.767936,67.6272994 70.3321682,68.4421143 C69.8964005,69.2569291 69.2569291,69.8964005 68.4421143,70.3321682 C67.6272994,70.767936 66.8190838,71 64.590287,71 L6.409713,71 C4.18091615,71 3.37270056,70.767936 2.55788574,70.3321682 C1.74307093,69.8964005 1.10359949,69.2569291 0.667831759,68.4421143 C0.232064028,67.6272994 1.00308841e-16,66.8190838 -1.72640051e-16,64.590287 L1.72640051e-16,6.409713 C-1.00308841e-16,4.18091615 0.232064028,3.37270056 0.667831759,2.55788574 C1.10359949,1.74307093 1.74307093,1.10359949 2.55788574,0.667831759 C3.37270056,0.232064028 4.18091615,1.50463262e-16 6.409713,-2.58960077e-16 Z" id="Rectangle" fill-opacity="0.05" fill="#FFB600"></path>
                <g id="56.-Bulb-2" transform="translate(25.000000, 19.000000)" fill-rule="nonzero" stroke-width="4">
                    <g id="56.-Bulb">
                        <path d="M10.0436796,33 C5.86882956,33 5.43613203,28.9530257 5.48116604,27.3428571 L14.6086957,27.3428571 C14.5346237,28.9074149 14.2185296,33 10.0436796,33 L10.0436796,33 Z" id="Path" stroke="#C8D6E5" fill="#C8D6E5"></path>
                        <path d="M5.7118359,22.6285714 C5.51370139,20.0335491 0,17.398603 0,10.8419101 C0,3.84852942 5.0239471,0.140283116 10.4994072,0 C15.9764481,0.140900186 21,3.84852942 21,10.8419101 C21.0003952,17.398603 15.4468959,20.0053588 15.18976,22.6285714 L5.7118359,22.6285714 L5.7118359,22.6285714 Z" id="Path" stroke="#FEC957" fill="#FEC957"></path>
                    </g>
                </g>
            </g>
        </g>
    </g>
</svg>