<?xml version="1.0" encoding="UTF-8"?>
<svg width="71px" height="71px" viewBox="0 0 71 71" version="1.1" xmlns="http://www.w3.org/2000/svg" xmlns:xlink="http://www.w3.org/1999/xlink">
    <title>implementation</title>
    <g id="Page-1" stroke="none" stroke-width="1" fill="none" fill-rule="evenodd">
        <g id="Desktop" transform="translate(-489.000000, -209.000000)" fill="#3E30FF">
            <g id="implementation" transform="translate(489.000000, 209.000000)">
                <path d="M6.409713,-2.58960077e-16 L64.590287,2.58960077e-16 C66.8190838,-1.50463262e-16 67.6272994,0.232064028 68.4421143,0.667831759 C69.2569291,1.10359949 69.8964005,1.74307093 70.3321682,2.55788574 C70.767936,3.37270056 71,4.18091615 71,6.409713 L71,64.590287 C71,66.8190838 70.767936,67.6272994 70.3321682,68.4421143 C69.8964005,69.2569291 69.2569291,69.8964005 68.4421143,70.3321682 C67.6272994,70.767936 66.8190838,71 64.590287,71 L6.409713,71 C4.18091615,71 3.37270056,70.767936 2.55788574,70.3321682 C1.74307093,69.8964005 1.10359949,69.2569291 0.667831759,68.4421143 C0.232064028,67.6272994 1.00308841e-16,66.8190838 -1.72640051e-16,64.590287 L1.72640051e-16,6.409713 C-1.00308841e-16,4.18091615 0.232064028,3.37270056 0.667831759,2.55788574 C1.10359949,1.74307093 1.74307093,1.10359949 2.55788574,0.667831759 C3.37270056,0.232064028 4.18091615,1.50463262e-16 6.409713,-2.58960077e-16 Z" id="Rectangle" fill-opacity="0.05"></path>
                <g id="ic_build_48px" transform="translate(19.000000, 19.000000)" fill-rule="nonzero">
                    <path d="M32.5497419,26.9215158 L18.8168701,13.188644 C20.1676444,9.73666527 19.4172142,5.60929943 16.6406227,2.83270786 C13.6389021,-0.169012751 9.13632114,-0.769356873 5.53425641,0.956632479 L12.0629987,7.48537481 L7.48537481,12.0629987 L0.956632479,5.53425641 C-0.769356873,9.13632114 -0.169012751,13.6389021 2.83270786,16.6406227 C5.60929943,19.4172142 9.73666527,20.1676444 13.188644,18.8168701 L26.9215158,32.5497419 C27.5218599,33.150086 28.4974191,33.150086 29.0227202,32.5497419 L32.5497419,29.0227202 C33.150086,28.4974191 33.150086,27.5218599 32.5497419,26.9215158 L32.5497419,26.9215158 Z" id="Path"></path>
                </g>
            </g>
        </g>
    </g>
</svg>