<?xml version="1.0" encoding="UTF-8"?>
<svg width="71px" height="71px" viewBox="0 0 71 71" version="1.1" xmlns="http://www.w3.org/2000/svg" xmlns:xlink="http://www.w3.org/1999/xlink">
    <title>itconsultation</title>
    <g id="Page-1" stroke="none" stroke-width="1" fill="none" fill-rule="evenodd">
        <g id="Desktop" transform="translate(-485.000000, -194.000000)">
            <g id="itconsultation" transform="translate(485.000000, 194.000000)">
                <g id="Group-3-Copy" fill="#CE5A15" fill-opacity="0.05">
                    <g id="Group-Copy">
                        <path d="M6.409713,-2.58960077e-16 L64.590287,2.58960077e-16 C66.8190838,-1.50463262e-16 67.6272994,0.232064028 68.4421143,0.667831759 C69.2569291,1.10359949 69.8964005,1.74307093 70.3321682,2.55788574 C70.767936,3.37270056 71,4.18091615 71,6.409713 L71,64.590287 C71,66.8190838 70.767936,67.6272994 70.3321682,68.4421143 C69.8964005,69.2569291 69.2569291,69.8964005 68.4421143,70.3321682 C67.6272994,70.767936 66.8190838,71 64.590287,71 L6.409713,71 C4.18091615,71 3.37270056,70.767936 2.55788574,70.3321682 C1.74307093,69.8964005 1.10359949,69.2569291 0.667831759,68.4421143 C0.232064028,67.6272994 1.00308841e-16,66.8190838 -1.72640051e-16,64.590287 L1.72640051e-16,6.409713 C-1.00308841e-16,4.18091615 0.232064028,3.37270056 0.667831759,2.55788574 C1.10359949,1.74307093 1.74307093,1.10359949 2.55788574,0.667831759 C3.37270056,0.232064028 4.18091615,1.50463262e-16 6.409713,-2.58960077e-16 Z" id="Rectangle"></path>
                    </g>
                </g>
                <g id="hardware-chip" transform="translate(19.000000, 19.000000)">
                    <path d="M23.625,7 L9.375,7 C8.06332372,7 7,8.06332372 7,9.375 L7,23.625 C7,24.9366763 8.06332372,26 9.375,26 L23.625,26 C24.9366763,26 26,24.9366763 26,23.625 L26,9.375 C26,8.06332372 24.9366763,7 23.625,7 Z M23.625,23.03125 C23.625,23.3591691 23.3591691,23.625 23.03125,23.625 L9.96875,23.625 C9.64083093,23.625 9.375,23.3591691 9.375,23.03125 L9.375,9.96875 C9.375,9.64083093 9.64083093,9.375 9.96875,9.375 L23.03125,9.375 C23.3591691,9.375 23.625,9.64083093 23.625,9.96875 L23.625,23.03125 Z" id="Shape"></path>
                    <rect id="Rectangle" fill="#CE5A15" fill-rule="nonzero" x="11.5" y="11.5" width="10" height="10" rx="5"></rect>
                    <path d="M31.8214286,11.7857143 C32.4723356,11.7857143 33,11.2580499 33,10.6071429 C33,9.95623583 32.4723356,9.42857143 31.8214286,9.42857143 L30.6428571,9.42857143 L30.6428571,7.07142857 C30.6400154,4.46897847 28.5310215,2.35998463 25.9285714,2.35714286 L23.5714286,2.35714286 L23.5714286,1.17857143 C23.5714286,0.527664402 23.0437642,0 22.3928571,0 C21.7419501,0 21.2142857,0.527664402 21.2142857,1.17857143 L21.2142857,2.35714286 L17.6785714,2.35714286 L17.6785714,1.17857143 C17.6785714,0.527664402 17.150907,0 16.5,0 C15.849093,0 15.3214286,0.527664402 15.3214286,1.17857143 L15.3214286,2.35714286 L11.7857143,2.35714286 L11.7857143,1.17857143 C11.7857143,0.527664402 11.2580499,0 10.6071429,0 C9.95623583,0 9.42857143,0.527664402 9.42857143,1.17857143 L9.42857143,2.35714286 L7.07142857,2.35714286 C4.46897847,2.35998463 2.35998463,4.46897847 2.35714286,7.07142857 L2.35714286,9.42857143 L1.17857143,9.42857143 C0.527664402,9.42857143 0,9.95623583 0,10.6071429 C0,11.2580499 0.527664402,11.7857143 1.17857143,11.7857143 L2.35714286,11.7857143 L2.35714286,15.3214286 L1.17857143,15.3214286 C0.527664402,15.3214286 0,15.849093 0,16.5 C0,17.150907 0.527664402,17.6785714 1.17857143,17.6785714 L2.35714286,17.6785714 L2.35714286,21.2142857 L1.17857143,21.2142857 C0.527664402,21.2142857 0,21.7419501 0,22.3928571 C0,23.0437642 0.527664402,23.5714286 1.17857143,23.5714286 L2.35714286,23.5714286 L2.35714286,25.9285714 C2.35998463,28.5310215 4.46897847,30.6400154 7.07142857,30.6428571 L9.42857143,30.6428571 L9.42857143,31.8214286 C9.42857143,32.4723356 9.95623583,33 10.6071429,33 C11.2580499,33 11.7857143,32.4723356 11.7857143,31.8214286 L11.7857143,30.6428571 L15.3214286,30.6428571 L15.3214286,31.8214286 C15.3214286,32.4723356 15.849093,33 16.5,33 C17.150907,33 17.6785714,32.4723356 17.6785714,31.8214286 L17.6785714,30.6428571 L21.2142857,30.6428571 L21.2142857,31.8214286 C21.2142857,32.4723356 21.7419501,33 22.3928571,33 C23.0437642,33 23.5714286,32.4723356 23.5714286,31.8214286 L23.5714286,30.6428571 L25.9285714,30.6428571 C28.5310215,30.6400154 30.6400154,28.5310215 30.6428571,25.9285714 L30.6428571,23.5714286 L31.8214286,23.5714286 C32.4723356,23.5714286 33,23.0437642 33,22.3928571 C33,21.7419501 32.4723356,21.2142857 31.8214286,21.2142857 L30.6428571,21.2142857 L30.6428571,17.6785714 L31.8214286,17.6785714 C32.4723356,17.6785714 33,17.150907 33,16.5 C33,15.849093 32.4723356,15.3214286 31.8214286,15.3214286 L30.6428571,15.3214286 L30.6428571,11.7857143 L31.8214286,11.7857143 Z M25.9285714,23.5714286 C25.9285714,24.8732426 24.8732426,25.9285714 23.5714286,25.9285714 L9.42857143,25.9285714 C8.12675738,25.9285714 7.07142857,24.8732426 7.07142857,23.5714286 L7.07142857,9.42857143 C7.07142857,8.12675738 8.12675738,7.07142857 9.42857143,7.07142857 L23.5714286,7.07142857 C24.8732426,7.07142857 25.9285714,8.12675738 25.9285714,9.42857143 L25.9285714,23.5714286 Z" id="Shape" fill="#CE5A15" fill-rule="nonzero"></path>
                </g>
            </g>
        </g>
    </g>
</svg>