<?xml version="1.0" encoding="UTF-8"?>
<svg width="71px" height="71px" viewBox="0 0 71 71" version="1.1" xmlns="http://www.w3.org/2000/svg" xmlns:xlink="http://www.w3.org/1999/xlink">
    <title>productconsultation</title>
    <g id="Page-1" stroke="none" stroke-width="1" fill="none" fill-rule="evenodd">
        <g id="Desktop" transform="translate(-281.000000, -194.000000)" fill="#2BAFFF">
            <g id="productconsultation" transform="translate(281.000000, 194.000000)">
                <g id="Group" fill-opacity="0.05">
                    <path d="M6.409713,-2.58960077e-16 L64.590287,2.58960077e-16 C66.8190838,-1.50463262e-16 67.6272994,0.232064028 68.4421143,0.667831759 C69.2569291,1.10359949 69.8964005,1.74307093 70.3321682,2.55788574 C70.767936,3.37270056 71,4.18091615 71,6.409713 L71,64.590287 C71,66.8190838 70.767936,67.6272994 70.3321682,68.4421143 C69.8964005,69.2569291 69.2569291,69.8964005 68.4421143,70.3321682 C67.6272994,70.767936 66.8190838,71 64.590287,71 L6.409713,71 C4.18091615,71 3.37270056,70.767936 2.55788574,70.3321682 C1.74307093,69.8964005 1.10359949,69.2569291 0.667831759,68.4421143 C0.232064028,67.6272994 1.00308841e-16,66.8190838 -1.72640051e-16,64.590287 L1.72640051e-16,6.409713 C-1.00308841e-16,4.18091615 0.232064028,3.37270056 0.667831759,2.55788574 C1.10359949,1.74307093 1.74307093,1.10359949 2.55788574,0.667831759 C3.37270056,0.232064028 4.18091615,1.50463262e-16 6.409713,-2.58960077e-16 Z" id="Rectangle"></path>
                </g>
                <g id="keynote-presentation" transform="translate(19.000000, 19.000000)" fill-rule="nonzero">
                    <path d="M23.71875,19.59375 C23.71875,20.1640312 23.2577812,20.625 22.6875,20.625 C22.1172188,20.625 21.65625,20.1640312 21.65625,19.59375 L21.65625,10.3125 C21.65625,9.74325 22.1172188,9.28125 22.6875,9.28125 C23.2577812,9.28125 23.71875,9.74325 23.71875,10.3125 L23.71875,19.59375 L23.71875,19.59375 Z M17.53125,19.59375 C17.53125,20.1640312 17.0702812,20.625 16.5,20.625 C15.9297188,20.625 15.46875,20.1640312 15.46875,19.59375 L15.46875,7.21875 C15.46875,6.6495 15.9297188,6.1875 16.5,6.1875 C17.0702812,6.1875 17.53125,6.6495 17.53125,7.21875 L17.53125,19.59375 L17.53125,19.59375 Z M11.34375,19.59375 C11.34375,20.1640312 10.8827812,20.625 10.3125,20.625 C9.74221875,20.625 9.28125,20.1640312 9.28125,19.59375 L9.28125,15.46875 C9.28125,14.8995 9.74221875,14.4375 10.3125,14.4375 C10.8827812,14.4375 11.34375,14.8995 11.34375,15.46875 L11.34375,19.59375 L11.34375,19.59375 Z M0,0 L0,2.0625 L2.0625,2.0625 L2.0625,21.65625 C2.0625,24.1003125 3.757875,25.78125 6.1875,25.78125 L12.375,25.78125 L8.25,33 L11.356125,32.9865937 L15.46875,25.78125 L17.53125,25.78125 L21.643875,32.9865937 L24.75,33 L20.625,25.78125 L26.8125,25.78125 C29.242125,25.78125 30.9375,24.1003125 30.9375,21.65625 L30.9375,2.0625 L33,2.0625 L33,0 L0,0 L0,0 Z"></path>
                </g>
            </g>
        </g>
    </g>
</svg>