<?xml version="1.0" encoding="UTF-8"?>
<svg width="71px" height="71px" viewBox="0 0 71 71" version="1.1" xmlns="http://www.w3.org/2000/svg" xmlns:xlink="http://www.w3.org/1999/xlink">
    <title>research&amp;development</title>
    <g id="Page-1" stroke="none" stroke-width="1" fill="none" fill-rule="evenodd">
        <g id="Desktop" transform="translate(-583.000000, -194.000000)" fill="#14BEAE">
            <g id="research&amp;development" transform="translate(583.000000, 194.000000)">
                <g id="Group-4-Copy-2" fill-opacity="0.05">
                    <g id="Group-Copy">
                        <path d="M6.409713,-2.58960077e-16 L64.590287,2.58960077e-16 C66.8190838,-1.50463262e-16 67.6272994,0.232064028 68.4421143,0.667831759 C69.2569291,1.10359949 69.8964005,1.74307093 70.3321682,2.55788574 C70.767936,3.37270056 71,4.18091615 71,6.409713 L71,64.590287 C71,66.8190838 70.767936,67.6272994 70.3321682,68.4421143 C69.8964005,69.2569291 69.2569291,69.8964005 68.4421143,70.3321682 C67.6272994,70.767936 66.8190838,71 64.590287,71 L6.409713,71 C4.18091615,71 3.37270056,70.767936 2.55788574,70.3321682 C1.74307093,69.8964005 1.10359949,69.2569291 0.667831759,68.4421143 C0.232064028,67.6272994 1.00308841e-16,66.8190838 -1.72640051e-16,64.590287 L1.72640051e-16,6.409713 C-1.00308841e-16,4.18091615 0.232064028,3.37270056 0.667831759,2.55788574 C1.10359949,1.74307093 1.74307093,1.10359949 2.55788574,0.667831759 C3.37270056,0.232064028 4.18091615,1.50463262e-16 6.409713,-2.58960077e-16 Z" id="Rectangle"></path>
                    </g>
                </g>
                <g id="ic_library_books_24px" transform="translate(19.000000, 21.000000)" fill-rule="nonzero">
                    <path d="M3.3,6.6 L0,6.6 L0,29.7 C0,31.515 1.485,33 3.3,33 L26.4,33 L26.4,29.7 L3.3,29.7 L3.3,6.6 Z M29.7,0 L9.9,0 C8.085,0 6.6,1.485 6.6,3.3 L6.6,23.1 C6.6,24.915 8.085,26.4 9.9,26.4 L29.7,26.4 C31.515,26.4 33,24.915 33,23.1 L33,3.3 C33,1.485 31.515,0 29.7,0 Z M28.05,14.85 L11.55,14.85 L11.55,11.55 L28.05,11.55 L28.05,14.85 Z M21.45,21.45 L11.55,21.45 L11.55,18.15 L21.45,18.15 L21.45,21.45 Z M28.05,8.25 L11.55,8.25 L11.55,4.95 L28.05,4.95 L28.05,8.25 Z" id="Shape"></path>
                </g>
            </g>
        </g>
    </g>
</svg>