<?xml version="1.0" encoding="UTF-8"?>
<svg width="71px" height="71px" viewBox="0 0 71 71" version="1.1" xmlns="http://www.w3.org/2000/svg" xmlns:xlink="http://www.w3.org/1999/xlink">
    <title>softwareengineering</title>
    <g id="Page-1" stroke="none" stroke-width="1" fill="none" fill-rule="evenodd">
        <g id="Desktop" transform="translate(-175.000000, -194.000000)" fill="#476CE1">
            <g id="softwareengineering" transform="translate(175.000000, 194.000000)">
                <g id="implementation-copy-2" fill-opacity="0.05">
                    <path d="M6.409713,-2.58960077e-16 L64.590287,2.58960077e-16 C66.8190838,-1.50463262e-16 67.6272994,0.232064028 68.4421143,0.667831759 C69.2569291,1.10359949 69.8964005,1.74307093 70.3321682,2.55788574 C70.767936,3.37270056 71,4.18091615 71,6.409713 L71,64.590287 C71,66.8190838 70.767936,67.6272994 70.3321682,68.4421143 C69.8964005,69.2569291 69.2569291,69.8964005 68.4421143,70.3321682 C67.6272994,70.767936 66.8190838,71 64.590287,71 L6.409713,71 C4.18091615,71 3.37270056,70.767936 2.55788574,70.3321682 C1.74307093,69.8964005 1.10359949,69.2569291 0.667831759,68.4421143 C0.232064028,67.6272994 1.00308841e-16,66.8190838 -1.72640051e-16,64.590287 L1.72640051e-16,6.409713 C-1.00308841e-16,4.18091615 0.232064028,3.37270056 0.667831759,2.55788574 C1.10359949,1.74307093 1.74307093,1.10359949 2.55788574,0.667831759 C3.37270056,0.232064028 4.18091615,1.50463262e-16 6.409713,-2.58960077e-16 Z" id="Rectangle"></path>
                </g>
                <g id="buffer-black" transform="translate(20.000000, 19.000000)" fill-rule="nonzero">
                    <path d="M31.6668458,16.0544442 L28.5993534,14.618931 C28.1546698,14.4106159 27.6410189,14.4095848 27.1953061,14.614806 L16.6978938,19.4534757 C16.2552691,19.6576658 15.745736,19.6576658 15.3031113,19.4534757 L4.80466913,14.614806 C4.3589564,14.4095848 3.8453055,14.4106159 3.40062186,14.618931 L0.333129508,16.0544442 C-0.112583218,16.2627585 -0.110525036,16.8980144 0.336217508,17.1042666 L15.3031113,24.003394 C15.745736,24.2075834 16.2552691,24.2075834 16.6978938,24.003394 L31.6637578,17.1042666 C32.1105003,16.8980144 32.1125585,16.2627585 31.6668458,16.0544442 L31.6668458,16.0544442 Z M31.6668458,24.8979082 L28.5993534,23.4623949 C28.1546698,23.2540806 27.6410189,23.2530495 27.1953061,23.4582699 L16.6978938,28.2969404 C16.2552691,28.5011298 15.745736,28.5011298 15.3031113,28.2969404 L4.80466913,23.4582699 C4.3589564,23.2530495 3.8453055,23.2540806 3.40062186,23.4623949 L0.333129508,24.8979082 C-0.112583218,25.1062225 -0.110525036,25.7414791 0.336217508,25.9477306 L15.3031113,32.846858 C15.745736,33.0510473 16.2552691,33.0510473 16.6978938,32.846858 L31.6637578,25.9477306 C32.1105003,25.7414791 32.1125585,25.1062225 31.6668458,24.8979082 L31.6668458,24.8979082 Z M15.1851462,0.180985751 L0.333541144,7.13270712 C-0.112171581,7.34102146 -0.110112672,7.97627806 0.336629144,8.18252953 L15.3024931,15.081657 C15.7451178,15.2858463 16.2546516,15.2858463 16.6972764,15.081657 L31.6641694,8.18252953 C32.1109119,7.97627806 32.111941,7.34102146 31.6672574,7.13270712 L16.8156524,0.180985751 C16.2989135,-0.0603285837 15.7018851,-0.0603285837 15.1851462,0.180985751 L15.1851462,0.180985751 Z" id="Shape"></path>
                </g>
            </g>
        </g>
    </g>
</svg>