<?xml version="1.0" encoding="UTF-8"?>
<svg width="71px" height="71px" viewBox="0 0 71 71" version="1.1" xmlns="http://www.w3.org/2000/svg" xmlns:xlink="http://www.w3.org/1999/xlink">
    <title>userexperiencedesign</title>
    <g id="Page-1" stroke="none" stroke-width="1" fill="none" fill-rule="evenodd">
        <g id="Desktop" transform="translate(-689.000000, -194.000000)" fill="#1345A0">
            <g id="userexperiencedesign" transform="translate(689.000000, 194.000000)">
                <g id="Group-5-Copy-2" fill-opacity="0.05">
                    <g id="Group-Copy">
                        <path d="M6.409713,-2.58960077e-16 L64.590287,2.58960077e-16 C66.8190838,-1.50463262e-16 67.6272994,0.232064028 68.4421143,0.667831759 C69.2569291,1.10359949 69.8964005,1.74307093 70.3321682,2.55788574 C70.767936,3.37270056 71,4.18091615 71,6.409713 L71,64.590287 C71,66.8190838 70.767936,67.6272994 70.3321682,68.4421143 C69.8964005,69.2569291 69.2569291,69.8964005 68.4421143,70.3321682 C67.6272994,70.767936 66.8190838,71 64.590287,71 L6.409713,71 C4.18091615,71 3.37270056,70.767936 2.55788574,70.3321682 C1.74307093,69.8964005 1.10359949,69.2569291 0.667831759,68.4421143 C0.232064028,67.6272994 1.00308841e-16,66.8190838 -1.72640051e-16,64.590287 L1.72640051e-16,6.409713 C-1.00308841e-16,4.18091615 0.232064028,3.37270056 0.667831759,2.55788574 C1.10359949,1.74307093 1.74307093,1.10359949 2.55788574,0.667831759 C3.37270056,0.232064028 4.18091615,1.50463262e-16 6.409713,-2.58960077e-16 Z" id="Rectangle"></path>
                    </g>
                </g>
                <g id="users" transform="translate(19.000000, 21.000000)" fill-rule="nonzero">
                    <path d="M26.38185,31.5552266 C26.38185,27.8296685 22.7733,25.9337144 19.2588,24.4109796 C15.75585,22.8948798 14.63715,21.6176404 14.63715,18.8806988 C14.63715,17.2401926 15.70635,17.7743109 16.17495,14.7653339 C16.37295,13.517952 17.31675,14.7454288 17.49825,11.8973508 C17.49825,10.7627641 16.9818,10.4807762 16.9818,10.4807762 C16.9818,10.4807762 17.24415,8.80045992 17.34645,7.50663298 C17.45205,6.1514322 16.68975,3.2602266 13.5498,2.37279402 C13.002,1.80715942 12.63075,0.909774326 14.32035,0.0107304767 C10.62435,-0.161779782 9.7647,1.78227814 7.79625,3.21212278 C6.1215,4.46613967 5.6694,6.4516664 5.75025,7.50829173 C5.8575,8.80211867 6.1182,10.4824349 6.1182,10.4824349 C6.1182,10.4824349 5.6001,10.7644229 5.6001,11.8990096 C5.7816,14.7487464 6.7287,13.5196108 6.92505,14.7669926 C7.39365,17.7759696 8.4645,17.2418513 8.4645,18.8823576 C8.4645,21.6192992 8.1147,22.5482006 4.6101,24.0643003 C1.09395,25.5853764 0,28.0237425 0.01815,31.5552266 C0.0231,32.6118519 0,33 0,33 L26.4,33 C26.4,33 26.38185,32.6118519 26.38185,31.5552266 Z M30.5712,21.9941772 C28.69845,21.2361273 27.92295,20.3321072 27.92295,18.5671946 C27.92295,17.5039342 28.61265,17.8506135 28.91625,15.9082143 C29.0433,15.1053781 29.6538,15.8949443 29.77095,14.0587053 C29.77095,13.3271955 29.43765,13.1447327 29.43765,13.1447327 C29.43765,13.1447327 29.6076,12.0565911 29.6736,11.2222386 C29.7561,10.1822007 29.073,7.49502171 25.9314,7.49502171 C22.79145,7.49502171 22.1067,10.1822007 22.18755,11.2222386 C22.25685,12.0549323 22.42515,13.1447327 22.42515,13.1447327 C22.42515,13.1447327 22.09185,13.3255367 22.09185,14.0587053 C22.209,15.8949443 22.8195,15.1053781 22.94655,15.9082143 C23.25015,17.8522723 23.93985,17.505593 23.93985,18.5671946 C23.93985,20.3321072 23.21715,21.158166 20.955,22.1368299 C20.84115,22.1849338 20.757,22.2496251 20.65305,22.3060227 C23.35905,23.4870545 27.62595,25.5256613 28.63575,29.682495 L33,29.682495 L33,25.8375067 C33,24.1787543 32.54955,22.7953547 30.5712,21.9941772 L30.5712,21.9941772 Z" id="Shape"></path>
                </g>
            </g>
        </g>
    </g>
</svg>