<svg width="22" height="22" viewBox="0 0 22 22" fill="none" xmlns="http://www.w3.org/2000/svg">
<path d="M10.715 1.96693C13.5677 1.96693 13.9055 1.97944 15.0274 2.02949C16.07 2.07536 16.633 2.25052 17.0084 2.39649C17.5047 2.58834 17.8633 2.82189 18.2345 3.19307C18.6099 3.56841 18.8392 3.92291 19.0311 4.4192C19.1771 4.79455 19.3522 5.36174 19.3981 6.40021C19.4481 7.52625 19.4607 7.86407 19.4607 10.7125C19.4607 13.5652 19.4481 13.903 19.3981 15.0249C19.3522 16.0675 19.1771 16.6305 19.0311 17.0059C18.8392 17.5022 18.6057 17.8608 18.2345 18.232C17.8592 18.6074 17.5047 18.8367 17.0084 19.0286C16.633 19.1746 16.0658 19.3497 15.0274 19.3956C13.9013 19.4456 13.5635 19.4582 10.715 19.4582C7.86239 19.4582 7.52458 19.4456 6.4027 19.3956C5.36007 19.3497 4.79705 19.1746 4.4217 19.0286C3.92541 18.8367 3.56674 18.6032 3.19556 18.232C2.82021 17.8567 2.59084 17.5022 2.39899 17.0059C2.25302 16.6305 2.07786 16.0633 2.03198 15.0249C1.98194 13.8988 1.96943 13.561 1.96943 10.7125C1.96943 7.85989 1.98194 7.52208 2.03198 6.40021C2.07786 5.35757 2.25302 4.79455 2.39899 4.4192C2.59084 3.92291 2.82439 3.56424 3.19556 3.19307C3.57091 2.81772 3.92541 2.58834 4.4217 2.39649C4.79705 2.25052 5.36424 2.07536 6.4027 2.02949C7.52458 1.97944 7.86239 1.96693 10.715 1.96693ZM10.715 0.0443115C7.81652 0.0443115 7.45368 0.0568231 6.31512 0.10687C5.18074 0.156916 4.40085 0.340419 3.72522 0.603163C3.0204 0.878419 2.42401 1.24126 1.8318 1.83764C1.23541 2.42986 0.872574 3.02624 0.597319 3.72689C0.334575 4.40669 0.151072 5.18241 0.101025 6.3168C0.050979 7.45952 0.0384674 7.82236 0.0384674 10.7209C0.0384674 13.6194 0.050979 13.9822 0.101025 15.1208C0.151072 16.2552 0.334575 17.0351 0.597319 17.7107C0.872574 18.4155 1.23541 19.0119 1.8318 19.6041C2.42401 20.1963 3.0204 20.5633 3.72105 20.8344C4.40085 21.0972 5.17657 21.2807 6.31095 21.3307C7.44951 21.3808 7.81235 21.3933 10.7109 21.3933C13.6094 21.3933 13.9722 21.3808 15.1108 21.3307C16.2452 21.2807 17.0251 21.0972 17.7007 20.8344C18.4013 20.5633 18.9977 20.1963 19.5899 19.6041C20.1822 19.0119 20.5492 18.4155 20.8202 17.7149C21.083 17.0351 21.2665 16.2594 21.3165 15.125C21.3666 13.9864 21.3791 13.6236 21.3791 10.7251C21.3791 7.82653 21.3666 7.46369 21.3165 6.32514C21.2665 5.19075 21.083 4.41086 20.8202 3.73524C20.5575 3.02624 20.1947 2.42986 19.5983 1.83764C19.0061 1.24543 18.4097 0.878419 17.709 0.607334C17.0292 0.34459 16.2535 0.161087 15.1191 0.11104C13.9764 0.0568231 13.6136 0.0443115 10.715 0.0443115Z" fill="#A3A3A3"/>
<path d="M10.715 5.23657C7.68723 5.23657 5.23079 7.69302 5.23079 10.7208C5.23079 13.7486 7.68723 16.2051 10.715 16.2051C13.7429 16.2051 16.1993 13.7486 16.1993 10.7208C16.1993 7.69302 13.7429 5.23657 10.715 5.23657ZM10.715 14.2783C8.75072 14.2783 7.15758 12.6851 7.15758 10.7208C7.15758 8.7565 8.75072 7.16336 10.715 7.16336C12.6794 7.16336 14.2725 8.7565 14.2725 10.7208C14.2725 12.6851 12.6794 14.2783 10.715 14.2783Z" fill="#A3A3A3"/>
<path d="M17.6965 5.01974C17.6965 5.72873 17.121 6.30009 16.4162 6.30009C15.7072 6.30009 15.1358 5.72456 15.1358 5.01974C15.1358 4.31074 15.7113 3.73938 16.4162 3.73938C17.121 3.73938 17.6965 4.31491 17.6965 5.01974Z" fill="#A3A3A3"/>
</svg>
