<svg width="23" height="22" viewBox="0 0 23 22" fill="none" xmlns="http://www.w3.org/2000/svg">
<path d="M20.635 0.0443115H2.43893C1.56729 0.0443115 0.862473 0.73245 0.862473 1.58324V19.8544C0.862473 20.7051 1.56729 21.3975 2.43893 21.3975H20.635C21.5066 21.3975 22.2156 20.7051 22.2156 19.8585V1.58324C22.2156 0.73245 21.5066 0.0443115 20.635 0.0443115ZM7.19752 18.2404H4.02791V8.04757H7.19752V18.2404ZM5.61271 6.65878C4.5951 6.65878 3.77351 5.83718 3.77351 4.82374C3.77351 3.8103 4.5951 2.98871 5.61271 2.98871C6.62615 2.98871 7.44775 3.8103 7.44775 4.82374C7.44775 5.83301 6.62615 6.65878 5.61271 6.65878ZM19.0585 18.2404H15.8931V13.2858C15.8931 12.1055 15.8722 10.5833 14.2457 10.5833C12.5984 10.5833 12.3481 11.8719 12.3481 13.2024V18.2404H9.18686V8.04757H12.223V9.44053H12.2647C12.6859 8.63978 13.7202 7.79317 15.2592 7.79317C18.4663 7.79317 19.0585 9.90346 19.0585 12.6477V18.2404V18.2404Z" fill="#A3A3A3"/>
</svg>
