<svg width="18" height="16" viewBox="0 0 18 16" fill="none" xmlns="http://www.w3.org/2000/svg">
<path fill-rule="evenodd" clip-rule="evenodd" d="M0.397705 2.03716C0.397705 1.37442 0.934963 0.837158 1.59771 0.837158H15.9977C16.6604 0.837158 17.1977 1.37442 17.1977 2.03716C17.1977 2.6999 16.6604 3.23716 15.9977 3.23716H1.59771C0.934963 3.23716 0.397705 2.6999 0.397705 2.03716Z" fill="#FAFAFA"/>
<path fill-rule="evenodd" clip-rule="evenodd" d="M0.397705 8.03716C0.397705 7.37442 0.934963 6.83716 1.59771 6.83716H15.9977C16.6604 6.83716 17.1977 7.37442 17.1977 8.03716C17.1977 8.6999 16.6604 9.23716 15.9977 9.23716H1.59771C0.934963 9.23716 0.397705 8.6999 0.397705 8.03716Z" fill="#FAFAFA"/>
<path fill-rule="evenodd" clip-rule="evenodd" d="M0.397705 14.0372C0.397705 13.3744 0.934963 12.8372 1.59771 12.8372H15.9977C16.6604 12.8372 17.1977 13.3744 17.1977 14.0372C17.1977 14.6999 16.6604 15.2372 15.9977 15.2372H1.59771C0.934963 15.2372 0.397705 14.6999 0.397705 14.0372Z" fill="#FAFAFA"/>
</svg>
