<svg width="22" height="18" viewBox="0 0 22 18" fill="none" xmlns="http://www.w3.org/2000/svg">
<path d="M6.93196 17.3957C14.9878 17.3957 19.3952 10.7199 19.3952 4.93249C19.3952 4.74482 19.391 4.55297 19.3827 4.3653C20.2401 3.74526 20.98 2.97725 21.5676 2.09736C20.7691 2.45263 19.9213 2.68465 19.0532 2.7855C19.9673 2.23759 20.6517 1.37685 20.9796 0.362837C20.1197 0.872457 19.1792 1.23195 18.1987 1.42591C17.538 0.723878 16.6644 0.259051 15.713 0.103293C14.7616 -0.0524651 13.7855 0.109521 12.9354 0.564205C12.0853 1.01889 11.4087 1.74095 11.0101 2.61875C10.6116 3.49654 10.5133 4.48119 10.7305 5.42045C8.98928 5.33307 7.28587 4.88075 5.73069 4.09281C4.17551 3.30488 2.80327 2.19891 1.70294 0.846619C1.14369 1.81083 0.972564 2.9518 1.22433 4.03765C1.4761 5.12349 2.13187 6.07274 3.05837 6.69246C2.36281 6.67038 1.68248 6.4831 1.07361 6.14612V6.20034C1.07298 7.2122 1.4228 8.19305 2.06358 8.97616C2.70436 9.75927 3.59657 10.2963 4.58853 10.496C3.94421 10.6723 3.26796 10.698 2.61212 10.5711C2.89203 11.4413 3.43664 12.2024 4.16994 12.7482C4.90324 13.294 5.78864 13.5972 6.70258 13.6155C5.15099 14.8343 3.23432 15.4954 1.26128 15.4923C0.911379 15.4918 0.561821 15.4703 0.214478 15.4281C2.21888 16.714 4.55053 17.397 6.93196 17.3957Z" fill="#A3A3A3"/>
</svg>
